# xmcd
#
# Track frame offsets:
#	150
#	11501
#	23392
#	35707
#	45826
#	56931
#	68063
#	80501
#	88158
#	96359
#	106217
#	115124
#	123496
#	133236
#	144969
#	153023
#	163148
#	173976
#	181665
#	194307
#	205155
#	213357
#	222439
#	230785
#	243463
#	254301
#	262473
#	269164
#	286047
#	298170
#	308189
#	319141
#	329418
#
# Disc length: 4496 seconds
#
# Revision: 1
# Processed by: cddbd v1.5.2PL0 Copyright (c) Steve Scherf et al.
# Submitted via: audiograbber 1.83.01
#
DISCID=f3118e21
DTITLE=Johnny Cash - The Complete Sun Masters - Disc 2
DYEAR=2008
DGENRE=
TTITLE0=Big River
TTITLE1=Home Of The Blues
TTITLE2=Next In Line
TTITLE3=Straight As In Love
TTITLE4=Don´t Make Me Go
TTITLE5=Oh, Lonesome Me
TTITLE6=Give My Love To Rose (Undubbed)
TTITLE7=Come In Stranger
TTITLE8=Guess Things Happen That Way
TTITLE9=Ballad Of A Teenage Queen
TTITLE10=Remember Me (I´m The One Who Loves You)
TTITLE11=Country Boy
TTITLE12=Rock Island Line
TTITLE13=Doin´ My Time
TTITLE14=The Wreck Of The Old 97
TTITLE15=I Was There When It Happened
TTITLE16=I Heard That Lonesome Whistle Blow
TTITLE17=If The Good Lord´s Willing
TTITLE18=Next In Line (Overdubbed)
TTITLE19=Belshazar (Overdubbed)
TTITLE20=Always Alone
TTITLE21=I Couldn´t Keep From Crying
TTITLE22=The Wreck Of The Old 97
TTITLE23=Give My Love To Rose (Overdubbed)
TTITLE24=Belshazar (Undubbed)
TTITLE25=Country Boy (Demo)
TTITLE26=Leave That Junk Alone (Demo)
TTITLE27=Big River (Alternate, with false start)
TTITLE28=Don´t Make Me Go (Alternate)
TTITLE29=Ballad Of A Teenage Queen (Alternate)
TTITLE30=Doin´ My Time (Alternate)
TTITLE31=I Was There When It Happened (Alternate)
TTITLE32=If The Good Lord´s Willing (Alternate)
EXTD=
EXTT0=
EXTT1=
EXTT2=
EXTT3=
EXTT4=
EXTT5=
EXTT6=
EXTT7=
EXTT8=
EXTT9=
EXTT10=
EXTT11=
EXTT12=
EXTT13=
EXTT14=
EXTT15=
EXTT16=
EXTT17=
EXTT18=
EXTT19=
EXTT20=
EXTT21=
EXTT22=
EXTT23=
EXTT24=
EXTT25=
EXTT26=
EXTT27=
EXTT28=
EXTT29=
EXTT30=
EXTT31=
EXTT32=
PLAYORDER=
